   <svg
        xmlns="http://www.w3.org/2000/svg"
        xmlns:xlink="http://www.w3.org/1999/xlink"
        width="500"
        zoomAndPan="magnify"
        viewBox="0 0 375 374.999991"
        height="500"
        preserveAspectRatio="xMidYMid meet"
        version="1.0"
      >
        <g fill="#f4db28" fill-opacity="1">
          <g transform="translate(18.34059, 197.999987)">
            <g>
              <path d="M 13.125 -7.21875 L 6.140625 -7.21875 L 4.1875 -1.5 L 6.5 -0.90625 C 6.5625 -0.519531 6.515625 -0.164062 6.359375 0.15625 C 4.546875 0.0507812 3.320312 0 2.6875 0 C 2.34375 0 2.007812 0.0078125 1.6875 0.03125 C 1.363281 0.0507812 1.050781 0.0703125 0.75 0.09375 C 0.445312 0.113281 0.164062 0.132812 -0.09375 0.15625 C -0.15625 -0.226562 -0.132812 -0.582031 -0.03125 -0.90625 C 0.875 -1.019531 1.644531 -1.21875 2.28125 -1.5 L 9.421875 -21.65625 C 9.722656 -21.8125 10.113281 -21.890625 10.59375 -21.890625 L 18.765625 -1.5 L 21.078125 -0.90625 C 21.140625 -0.519531 21.085938 -0.164062 20.921875 0.15625 C 19.117188 0.0507812 17.894531 0 17.25 0 C 16.207031 0 14.753906 0.0507812 12.890625 0.15625 C 12.828125 -0.226562 12.847656 -0.582031 12.953125 -0.90625 C 13.890625 -1.019531 14.691406 -1.21875 15.359375 -1.5 Z M 9.484375 -17.46875 L 9.421875 -17.46875 C 8.796875 -15.238281 8.351562 -13.75 8.09375 -13 L 6.6875 -8.875 L 12.46875 -8.875 L 10.8125 -13.15625 C 10.164062 -14.644531 9.722656 -16.082031 9.484375 -17.46875 Z M 9.484375 -17.46875 " />
            </g>
          </g>
        </g>
        <g fill="#f4db28" fill-opacity="1">
          <g transform="translate(50.980134, 197.999987)">
            <g>
              <path d="M 19.328125 -19.578125 L 19.328125 -8.28125 C 19.328125 -6.488281 19.171875 -5.039062 18.859375 -3.9375 C 18.546875 -2.832031 18.085938 -1.945312 17.484375 -1.28125 C 16.890625 -0.625 16.109375 -0.144531 15.140625 0.15625 C 14.179688 0.457031 12.976562 0.609375 11.53125 0.609375 C 10.082031 0.609375 8.847656 0.476562 7.828125 0.21875 C 6.804688 -0.03125 5.9375 -0.46875 5.21875 -1.09375 C 4.507812 -1.726562 3.972656 -2.601562 3.609375 -3.71875 C 3.253906 -4.832031 3.078125 -6.253906 3.078125 -7.984375 L 3.078125 -19.578125 L 0.75 -20.171875 C 0.6875 -20.554688 0.738281 -20.910156 0.90625 -21.234375 C 2.707031 -21.128906 3.929688 -21.078125 4.578125 -21.078125 C 5.484375 -21.078125 6.859375 -21.128906 8.703125 -21.234375 C 8.765625 -20.847656 8.742188 -20.492188 8.640625 -20.171875 C 7.597656 -20.035156 6.796875 -19.835938 6.234375 -19.578125 L 6.234375 -7.078125 C 6.210938 -2.941406 8.226562 -0.882812 12.28125 -0.90625 C 13.039062 -0.90625 13.707031 -0.992188 14.28125 -1.171875 C 14.851562 -1.347656 15.34375 -1.613281 15.75 -1.96875 C 16.164062 -2.320312 16.476562 -2.695312 16.6875 -3.09375 C 16.90625 -3.5 17.078125 -3.90625 17.203125 -4.3125 C 17.335938 -4.726562 17.441406 -5.257812 17.515625 -5.90625 C 17.597656 -6.5625 17.644531 -7.097656 17.65625 -7.515625 C 17.664062 -7.941406 17.671875 -8.5 17.671875 -9.1875 L 17.671875 -19.578125 L 15.359375 -20.171875 C 15.296875 -20.554688 15.34375 -20.910156 15.5 -21.234375 C 16.90625 -21.128906 17.929688 -21.078125 18.578125 -21.078125 C 19.253906 -21.078125 20.328125 -21.128906 21.796875 -21.234375 C 21.859375 -20.828125 21.835938 -20.472656 21.734375 -20.171875 C 20.585938 -20.015625 19.785156 -19.816406 19.328125 -19.578125 Z M 19.328125 -19.578125 " />
            </g>
          </g>
        </g>
        <g fill="#f4db28" fill-opacity="1">
          <g transform="translate(85.456111, 197.999987)">
            <g>
              <path d="M 6.71875 -9.484375 L 6.71875 -1.5 L 9.03125 -0.90625 C 9.09375 -0.519531 9.039062 -0.164062 8.875 0.15625 C 7.070312 0.0507812 5.847656 0 5.203125 0 C 4.328125 0 2.953125 0.0507812 1.078125 0.15625 C 1.023438 -0.226562 1.046875 -0.582031 1.140625 -0.90625 C 2.023438 -1 2.828125 -1.195312 3.546875 -1.5 L 3.546875 -19.578125 L 1.234375 -20.171875 C 1.171875 -20.554688 1.222656 -20.910156 1.390625 -21.234375 C 3.078125 -21.109375 4.5 -21.054688 5.65625 -21.078125 L 8.484375 -21.25 C 11.015625 -21.394531 13.050781 -20.945312 14.59375 -19.90625 C 16.144531 -18.875 16.921875 -17.378906 16.921875 -15.421875 C 16.921875 -12.804688 15.546875 -11.035156 12.796875 -10.109375 L 12.796875 -10 C 13.015625 -9.851562 13.234375 -9.53125 13.453125 -9.03125 C 15.117188 -5.28125 16.125 -3.132812 16.46875 -2.59375 C 16.96875 -1.6875 17.519531 -1.164062 18.125 -1.03125 C 18.363281 -0.96875 18.644531 -0.9375 18.96875 -0.9375 L 19.328125 -0.96875 C 19.492188 -0.726562 19.554688 -0.40625 19.515625 0 C 19.273438 0.28125 18.613281 0.429688 17.53125 0.453125 C 16.195312 0.453125 15.097656 -0.0664062 14.234375 -1.109375 C 13.898438 -1.515625 13.570312 -2.0625 13.25 -2.75 C 12.925781 -3.445312 12.5 -4.4375 11.96875 -5.71875 C 11.4375 -7 10.859375 -8.265625 10.234375 -9.515625 C 9.578125 -9.453125 8.90625 -9.421875 8.21875 -9.421875 C 7.851562 -9.421875 7.351562 -9.441406 6.71875 -9.484375 Z M 13.96875 -15.234375 C 13.96875 -16.703125 13.488281 -17.84375 12.53125 -18.65625 C 11.582031 -19.46875 10.375 -19.875 8.90625 -19.875 C 8.269531 -19.875 7.539062 -19.765625 6.71875 -19.546875 L 6.71875 -10.875 C 7.300781 -10.726562 7.898438 -10.65625 8.515625 -10.65625 C 10.242188 -10.65625 11.582031 -11.0625 12.53125 -11.875 C 13.488281 -12.6875 13.96875 -13.804688 13.96875 -15.234375 Z M 13.96875 -15.234375 " />
            </g>
          </g>
        </g>
        <g fill="#f4db28" fill-opacity="1">
          <g transform="translate(117.132279, 197.999987)">
            <g>
              <path d="M 19.328125 -19.578125 L 19.328125 -8.28125 C 19.328125 -6.488281 19.171875 -5.039062 18.859375 -3.9375 C 18.546875 -2.832031 18.085938 -1.945312 17.484375 -1.28125 C 16.890625 -0.625 16.109375 -0.144531 15.140625 0.15625 C 14.179688 0.457031 12.976562 0.609375 11.53125 0.609375 C 10.082031 0.609375 8.847656 0.476562 7.828125 0.21875 C 6.804688 -0.03125 5.9375 -0.46875 5.21875 -1.09375 C 4.507812 -1.726562 3.972656 -2.601562 3.609375 -3.71875 C 3.253906 -4.832031 3.078125 -6.253906 3.078125 -7.984375 L 3.078125 -19.578125 L 0.75 -20.171875 C 0.6875 -20.554688 0.738281 -20.910156 0.90625 -21.234375 C 2.707031 -21.128906 3.929688 -21.078125 4.578125 -21.078125 C 5.484375 -21.078125 6.859375 -21.128906 8.703125 -21.234375 C 8.765625 -20.847656 8.742188 -20.492188 8.640625 -20.171875 C 7.597656 -20.035156 6.796875 -19.835938 6.234375 -19.578125 L 6.234375 -7.078125 C 6.210938 -2.941406 8.226562 -0.882812 12.28125 -0.90625 C 13.039062 -0.90625 13.707031 -0.992188 14.28125 -1.171875 C 14.851562 -1.347656 15.34375 -1.613281 15.75 -1.96875 C 16.164062 -2.320312 16.476562 -2.695312 16.6875 -3.09375 C 16.90625 -3.5 17.078125 -3.90625 17.203125 -4.3125 C 17.335938 -4.726562 17.441406 -5.257812 17.515625 -5.90625 C 17.597656 -6.5625 17.644531 -7.097656 17.65625 -7.515625 C 17.664062 -7.941406 17.671875 -8.5 17.671875 -9.1875 L 17.671875 -19.578125 L 15.359375 -20.171875 C 15.296875 -20.554688 15.34375 -20.910156 15.5 -21.234375 C 16.90625 -21.128906 17.929688 -21.078125 18.578125 -21.078125 C 19.253906 -21.078125 20.328125 -21.128906 21.796875 -21.234375 C 21.859375 -20.828125 21.835938 -20.472656 21.734375 -20.171875 C 20.585938 -20.015625 19.785156 -19.816406 19.328125 -19.578125 Z M 19.328125 -19.578125 " />
            </g>
          </g>
        </g>
        <g fill="#f4db28" fill-opacity="1">
          <g transform="translate(151.608256, 197.999987)">
            <g>
              <path d="M 14.90625 -7.984375 L 19.8125 -20.46875 L 19.8125 -21.078125 L 21.625 -21.078125 C 22.519531 -21.078125 23.894531 -21.128906 25.75 -21.234375 C 25.800781 -20.847656 25.78125 -20.492188 25.6875 -20.171875 C 24.582031 -19.992188 23.78125 -19.796875 23.28125 -19.578125 L 24.78125 -1.5 L 27.09375 -0.90625 C 27.15625 -0.519531 27.109375 -0.164062 26.953125 0.15625 C 25.140625 0.0507812 23.914062 0 23.28125 0 C 22.394531 0 21.019531 0.0507812 19.15625 0.15625 C 19.09375 -0.25 19.109375 -0.601562 19.203125 -0.90625 C 20.535156 -1.082031 21.34375 -1.28125 21.625 -1.5 L 20.359375 -14.6875 C 20.316406 -15.070312 20.296875 -15.632812 20.296875 -16.375 C 20.296875 -17 20.304688 -17.460938 20.328125 -17.765625 L 20.234375 -17.765625 C 19.910156 -16.554688 19.585938 -15.53125 19.265625 -14.6875 L 13.8125 -0.9375 C 13.414062 -0.71875 13.054688 -0.613281 12.734375 -0.625 L 6.8125 -14.6875 C 6.539062 -15.3125 6.207031 -16.335938 5.8125 -17.765625 L 5.71875 -17.765625 L 5.625 -14.65625 L 4.875 -1.46875 L 7.203125 -0.875 C 7.253906 -0.488281 7.203125 -0.132812 7.046875 0.1875 C 6.804688 0.164062 6.472656 0.140625 6.046875 0.109375 C 5.628906 0.078125 5.242188 0.0507812 4.890625 0.03125 C 4.535156 0.0078125 4.203125 0 3.890625 0 C 3.203125 0 2.125 0.0507812 0.65625 0.15625 C 0.601562 -0.226562 0.625 -0.582031 0.71875 -0.90625 C 1.601562 -1.019531 2.390625 -1.21875 3.078125 -1.5 L 4.28125 -19.578125 L 1.953125 -20.171875 C 1.890625 -20.554688 1.941406 -20.910156 2.109375 -21.234375 C 3.910156 -21.128906 5.132812 -21.078125 5.78125 -21.078125 L 7.734375 -21.078125 L 7.734375 -20.46875 L 12.640625 -7.984375 C 13.003906 -7.140625 13.367188 -5.953125 13.734375 -4.421875 L 13.796875 -4.421875 C 14.148438 -5.804688 14.519531 -6.992188 14.90625 -7.984375 Z M 14.90625 -7.984375 " />
            </g>
          </g>
        </g>
        <g fill="#0c4ca5" fill-opacity="1">
          <g transform="translate(210.481207, 197.999987)">
            <g>
              <path d="M 6.71875 -1.65625 L 13.9375 -1.65625 L 14.75 -5.359375 C 15.175781 -5.441406 15.539062 -5.410156 15.84375 -5.265625 C 16.039062 -3.804688 16.140625 -2.050781 16.140625 0 L 5.203125 0 C 4.398438 0 3.066406 0.0507812 1.203125 0.15625 C 1.140625 -0.226562 1.160156 -0.582031 1.265625 -0.90625 C 2.429688 -1.125 3.191406 -1.320312 3.546875 -1.5 L 3.546875 -19.578125 L 1.234375 -20.171875 C 1.171875 -20.554688 1.222656 -20.910156 1.390625 -21.234375 C 3.191406 -21.128906 4.414062 -21.078125 5.0625 -21.078125 C 5.957031 -21.078125 7.332031 -21.128906 9.1875 -21.234375 C 9.25 -20.847656 9.226562 -20.492188 9.125 -20.171875 C 8.0625 -20.066406 7.257812 -19.867188 6.71875 -19.578125 Z M 6.71875 -1.65625 " />
            </g>
          </g>
        </g>
        <g fill="#0c4ca5" fill-opacity="1">
          <g transform="translate(239.026409, 197.999987)">
            <g>
              <path d="M 19.328125 -19.578125 L 19.328125 -8.28125 C 19.328125 -6.488281 19.171875 -5.039062 18.859375 -3.9375 C 18.546875 -2.832031 18.085938 -1.945312 17.484375 -1.28125 C 16.890625 -0.625 16.109375 -0.144531 15.140625 0.15625 C 14.179688 0.457031 12.976562 0.609375 11.53125 0.609375 C 10.082031 0.609375 8.847656 0.476562 7.828125 0.21875 C 6.804688 -0.03125 5.9375 -0.46875 5.21875 -1.09375 C 4.507812 -1.726562 3.972656 -2.601562 3.609375 -3.71875 C 3.253906 -4.832031 3.078125 -6.253906 3.078125 -7.984375 L 3.078125 -19.578125 L 0.75 -20.171875 C 0.6875 -20.554688 0.738281 -20.910156 0.90625 -21.234375 C 2.707031 -21.128906 3.929688 -21.078125 4.578125 -21.078125 C 5.484375 -21.078125 6.859375 -21.128906 8.703125 -21.234375 C 8.765625 -20.847656 8.742188 -20.492188 8.640625 -20.171875 C 7.597656 -20.035156 6.796875 -19.835938 6.234375 -19.578125 L 6.234375 -7.078125 C 6.210938 -2.941406 8.226562 -0.882812 12.28125 -0.90625 C 13.039062 -0.90625 13.707031 -0.992188 14.28125 -1.171875 C 14.851562 -1.347656 15.34375 -1.613281 15.75 -1.96875 C 16.164062 -2.320312 16.476562 -2.695312 16.6875 -3.09375 C 16.90625 -3.5 17.078125 -3.90625 17.203125 -4.3125 C 17.335938 -4.726562 17.441406 -5.257812 17.515625 -5.90625 C 17.597656 -6.5625 17.644531 -7.097656 17.65625 -7.515625 C 17.664062 -7.941406 17.671875 -8.5 17.671875 -9.1875 L 17.671875 -19.578125 L 15.359375 -20.171875 C 15.296875 -20.554688 15.34375 -20.910156 15.5 -21.234375 C 16.90625 -21.128906 17.929688 -21.078125 18.578125 -21.078125 C 19.253906 -21.078125 20.328125 -21.128906 21.796875 -21.234375 C 21.859375 -20.828125 21.835938 -20.472656 21.734375 -20.171875 C 20.585938 -20.015625 19.785156 -19.816406 19.328125 -19.578125 Z M 19.328125 -19.578125 " />
            </g>
          </g>
        </g>
        <g fill="#0c4ca5" fill-opacity="1">
          <g transform="translate(273.502385, 197.999987)">
            <g>
              <path d="M 17.34375 -19.578125 L 11.53125 -11.46875 L 17.640625 -1.75 C 18.085938 -1.34375 19.019531 -1.0625 20.4375 -0.90625 C 20.4375 -0.863281 20.441406 -0.8125 20.453125 -0.75 C 20.460938 -0.6875 20.46875 -0.640625 20.46875 -0.609375 C 20.46875 -0.335938 20.410156 -0.0820312 20.296875 0.15625 C 19.390625 0.113281 18.601562 0.078125 17.9375 0.046875 C 17.28125 0.015625 16.734375 0 16.296875 0 C 15.691406 0 15.003906 0.015625 14.234375 0.046875 C 13.472656 0.078125 12.632812 0.113281 11.71875 0.15625 C 11.695312 0.09375 11.6875 0.0234375 11.6875 -0.046875 C 11.6875 -0.117188 11.6875 -0.179688 11.6875 -0.234375 C 11.6875 -0.460938 11.710938 -0.6875 11.765625 -0.90625 C 12.304688 -1 12.78125 -1.097656 13.1875 -1.203125 C 13.59375 -1.304688 13.9375 -1.40625 14.21875 -1.5 L 9.421875 -9 L 4.15625 -1.5 L 6.46875 -0.90625 C 6.46875 -0.863281 6.472656 -0.8125 6.484375 -0.75 C 6.492188 -0.6875 6.5 -0.640625 6.5 -0.609375 C 6.5 -0.335938 6.441406 -0.0820312 6.328125 0.15625 C 5.523438 0.113281 4.832031 0.078125 4.25 0.046875 C 3.664062 0.015625 3.203125 0 2.859375 0 C 2.460938 0 2.003906 0.015625 1.484375 0.046875 C 0.972656 0.078125 0.410156 0.113281 -0.203125 0.15625 C -0.222656 0.09375 -0.234375 0.0234375 -0.234375 -0.046875 C -0.234375 -0.117188 -0.234375 -0.179688 -0.234375 -0.234375 C -0.234375 -0.460938 -0.207031 -0.6875 -0.15625 -0.90625 C 0.40625 -0.988281 0.878906 -1.070312 1.265625 -1.15625 C 1.660156 -1.25 1.992188 -1.363281 2.265625 -1.5 L 8.609375 -10.328125 L 2.734375 -19.578125 L 0.421875 -20.171875 C 0.398438 -20.234375 0.390625 -20.332031 0.390625 -20.46875 C 0.390625 -20.726562 0.453125 -20.984375 0.578125 -21.234375 C 1.472656 -21.191406 2.265625 -21.15625 2.953125 -21.125 C 3.648438 -21.09375 4.234375 -21.078125 4.703125 -21.078125 C 5.160156 -21.078125 5.738281 -21.09375 6.4375 -21.125 C 7.144531 -21.15625 7.96875 -21.191406 8.90625 -21.234375 C 8.925781 -21.128906 8.9375 -20.992188 8.9375 -20.828125 C 8.9375 -20.585938 8.910156 -20.367188 8.859375 -20.171875 C 8.253906 -20.066406 7.75 -19.960938 7.34375 -19.859375 C 6.945312 -19.765625 6.632812 -19.671875 6.40625 -19.578125 L 10.6875 -12.703125 L 15.625 -19.578125 L 13.3125 -20.171875 C 13.289062 -20.234375 13.28125 -20.332031 13.28125 -20.46875 C 13.28125 -20.726562 13.335938 -20.984375 13.453125 -21.234375 C 14.160156 -21.191406 14.78125 -21.15625 15.3125 -21.125 C 15.84375 -21.09375 16.289062 -21.078125 16.65625 -21.078125 C 16.988281 -21.078125 17.421875 -21.09375 17.953125 -21.125 C 18.492188 -21.15625 19.132812 -21.191406 19.875 -21.234375 C 19.894531 -21.128906 19.90625 -20.992188 19.90625 -20.828125 C 19.90625 -20.585938 19.875 -20.367188 19.8125 -20.171875 C 19.375 -20.128906 18.945312 -20.054688 18.53125 -19.953125 C 18.125 -19.859375 17.726562 -19.734375 17.34375 -19.578125 Z M 17.34375 -19.578125 " />
            </g>
          </g>
        </g>
        <g fill="#0c4ca5" fill-opacity="1">
          <g transform="translate(305.750553, 197.999987)">
            <g>
              <path d="M 19.328125 -19.578125 L 19.328125 -8.28125 C 19.328125 -6.488281 19.171875 -5.039062 18.859375 -3.9375 C 18.546875 -2.832031 18.085938 -1.945312 17.484375 -1.28125 C 16.890625 -0.625 16.109375 -0.144531 15.140625 0.15625 C 14.179688 0.457031 12.976562 0.609375 11.53125 0.609375 C 10.082031 0.609375 8.847656 0.476562 7.828125 0.21875 C 6.804688 -0.03125 5.9375 -0.46875 5.21875 -1.09375 C 4.507812 -1.726562 3.972656 -2.601562 3.609375 -3.71875 C 3.253906 -4.832031 3.078125 -6.253906 3.078125 -7.984375 L 3.078125 -19.578125 L 0.75 -20.171875 C 0.6875 -20.554688 0.738281 -20.910156 0.90625 -21.234375 C 2.707031 -21.128906 3.929688 -21.078125 4.578125 -21.078125 C 5.484375 -21.078125 6.859375 -21.128906 8.703125 -21.234375 C 8.765625 -20.847656 8.742188 -20.492188 8.640625 -20.171875 C 7.597656 -20.035156 6.796875 -19.835938 6.234375 -19.578125 L 6.234375 -7.078125 C 6.210938 -2.941406 8.226562 -0.882812 12.28125 -0.90625 C 13.039062 -0.90625 13.707031 -0.992188 14.28125 -1.171875 C 14.851562 -1.347656 15.34375 -1.613281 15.75 -1.96875 C 16.164062 -2.320312 16.476562 -2.695312 16.6875 -3.09375 C 16.90625 -3.5 17.078125 -3.90625 17.203125 -4.3125 C 17.335938 -4.726562 17.441406 -5.257812 17.515625 -5.90625 C 17.597656 -6.5625 17.644531 -7.097656 17.65625 -7.515625 C 17.664062 -7.941406 17.671875 -8.5 17.671875 -9.1875 L 17.671875 -19.578125 L 15.359375 -20.171875 C 15.296875 -20.554688 15.34375 -20.910156 15.5 -21.234375 C 16.90625 -21.128906 17.929688 -21.078125 18.578125 -21.078125 C 19.253906 -21.078125 20.328125 -21.128906 21.796875 -21.234375 C 21.859375 -20.828125 21.835938 -20.472656 21.734375 -20.171875 C 20.585938 -20.015625 19.785156 -19.816406 19.328125 -19.578125 Z M 19.328125 -19.578125 " />
            </g>
          </g>
        </g>
        <g fill="#0c4ca5" fill-opacity="1">
          <g transform="translate(340.226529, 197.999987)">
            <g>
              <path d="M 7.765625 0.578125 C 5.054688 0.578125 2.957031 0.222656 1.46875 -0.484375 C 1.46875 -2.265625 1.734375 -4.007812 2.265625 -5.71875 C 2.296875 -5.71875 2.351562 -5.722656 2.4375 -5.734375 C 2.519531 -5.742188 2.59375 -5.75 2.65625 -5.75 C 3.007812 -5.75 3.316406 -5.6875 3.578125 -5.5625 L 4.0625 -1.5625 C 5.332031 -1.257812 6.414062 -1.109375 7.3125 -1.109375 C 8.019531 -1.109375 8.742188 -1.1875 9.484375 -1.34375 C 10.222656 -1.507812 10.867188 -1.84375 11.421875 -2.34375 C 11.972656 -2.84375 12.25 -3.523438 12.25 -4.390625 C 12.25 -5.171875 12.132812 -5.800781 11.90625 -6.28125 C 11.675781 -6.769531 11.144531 -7.300781 10.3125 -7.875 C 9.476562 -8.445312 8.175781 -9.113281 6.40625 -9.875 C 4.601562 -10.675781 3.332031 -11.53125 2.59375 -12.4375 C 1.863281 -13.351562 1.519531 -14.585938 1.5625 -16.140625 C 1.582031 -17.898438 2.320312 -19.242188 3.78125 -20.171875 C 5.25 -21.097656 7.085938 -21.5625 9.296875 -21.5625 C 11.171875 -21.5625 12.878906 -21.257812 14.421875 -20.65625 C 14.484375 -19.125 14.171875 -17.425781 13.484375 -15.5625 C 13.410156 -15.539062 13.28125 -15.53125 13.09375 -15.53125 C 12.75 -15.53125 12.441406 -15.59375 12.171875 -15.71875 L 11.828125 -19.71875 C 10.929688 -19.976562 10.03125 -20.109375 9.125 -20.109375 C 7.800781 -20.109375 6.691406 -19.820312 5.796875 -19.25 C 4.898438 -18.675781 4.441406 -17.8125 4.421875 -16.65625 C 4.398438 -15.726562 4.664062 -14.972656 5.21875 -14.390625 C 5.769531 -13.804688 6.941406 -13.113281 8.734375 -12.3125 C 10.035156 -11.726562 11.046875 -11.238281 11.765625 -10.84375 C 12.492188 -10.457031 13.15625 -10 13.75 -9.46875 C 14.34375 -8.9375 14.769531 -8.328125 15.03125 -7.640625 C 15.289062 -6.960938 15.421875 -6.160156 15.421875 -5.234375 C 15.378906 -3.367188 14.601562 -1.929688 13.09375 -0.921875 C 11.59375 0.078125 9.816406 0.578125 7.765625 0.578125 Z M 7.765625 0.578125 " />
            </g>
          </g>
        </g>
      </svg>